<?xml version="1.0" encoding="utf-8"?>
<!-- Generator: Adobe Illustrator 25.2.3, SVG Export Plug-In . SVG Version: 6.00 Build 0)  -->
<svg version="1.1" id="Layer_1" xmlns="http://www.w3.org/2000/svg" xmlns:xlink="http://www.w3.org/1999/xlink" x="0px" y="0px"
	 viewBox="0 0 1000 403.1" style="enable-background:new 0 0 1000 403.1;" xml:space="preserve">
<style type="text/css">
	.st0{fill:none;stroke:#FD686E;stroke-miterlimit:10;}
	.st1{fill:#FD5D83;stroke:#FD686E;stroke-miterlimit:10;}
	.st2{fill:#FD686E;}
	.st3{fill:#FD765B;}
	.st4{fill:#FD686E;stroke:#FD686E;stroke-miterlimit:10;}
	.st5{fill:#FD765B;stroke:#FD686E;stroke-width:0.75;stroke-miterlimit:10;}
	.st6{fill:#FE5799;}
</style>
<g>
	<path class="st0" d="M655.2,259.9c-19.3-1.6-38.7-1.4-58.1-1.5c-2.4,0.2-4.6,1.2-6.2,3c-2.9,3.4-5,7.4-7.4,11.1
		c3.8,2.2,7.4,5.9,11.3,6.2c10.6,0.8,21.2,0.3,31.8,0.3v0.2c8.8,0,17.8,0.9,26.5-0.4c5.3-0.8,10-4.9,15-7.6
		C663.8,267.3,659.8,260.3,655.2,259.9z"/>
	<path class="st0" d="M585.3,210.7c-2.7,1.5-4.9,3.4-4.9,4.7c0,4.9,2,9.8,4,14.7c-0.1-0.2-0.2-0.5-0.3-0.7c-1.9-4.7-3.7-9.3-3.7-14
		C580.4,214.1,582.6,212.2,585.3,210.7z"/>
	<path class="st0" d="M594.3,188.3c8.4,2.2,17.7,0.7,26.5,0.7v0.3c8.3,0,16.9,1.4,24.7-0.5c4.8-1.2,8.4-7.4,12.5-11.3
		c-3.9-4-7.5-11.2-11.7-11.5c-17.1-1.2-34.3-1.2-51.3,0.1c-4.4,0.3-8.3,6.2-12.5,9.5C586.4,179.9,589.6,187.1,594.3,188.3z"/>
	<path class="st0" d="M708.6,210.9c-36,0.1-72.1-0.2-108.1,0.1c-16.3,0.1-20.7,4.8-16.3,18.3c0.9,2.1,1.7,4.2,2.4,6.3
		c-0.1-0.2-0.2-0.4-0.2-0.6c0.1,0.2,0.1,0.4,0.2,0.6l1.6-0.1l1.6,0.3c13.8,1.2,27.7,2.9,41.6,3.4c15.7,0.6,31.4,0.1,48.1,3.9
		c0,0,0,0,0,0c-16.6-3.8-32.4-3.3-48.1-3.9c-13.9-0.5-27.7-2.2-41.6-3.4c39.6-0.1,79.2-0.2,118.8-0.3c8.7,0,17.2,0,17.1-12.2
		C725.5,211.5,717.5,210.8,708.6,210.9z"/>
	<path class="st1" d="M796.7,363C779,344.7,761,326.7,743,308.7c-7.4-7.3-8.7-13.8-2-23.1c15.3-21.4,21.1-46.1,18-72
		c-7.3-60.8-45.2-99.7-105-108.4c-34.7-5.1-67.7,3-92.5,31.3c-1.2,1.2-2.5,2.5-3.7,3.7c0,0,0,0.1,0,0.1
		c-42.7,27.7-47.5,108.9-16.7,151.7c30.9,43,92,67.3,141.9,43.5c13.2-6.3,24.1-4.4,34.6,7.5c15.2,17.3,32.8,32.5,48.5,49.3
		c10.4,11.1,22,14.6,34.6,6.6C811,392.1,808.7,375.4,796.7,363z M595,166c17.1-1.2,34.2-1.3,51.3-0.1c4.1,0.3,7.8,7.5,11.7,11.5
		c-4.1,3.9-7.7,10.1-12.5,11.3c-7.8,1.9-16.4,0.5-24.7,0.5V189c-8.8,0-18.1,1.5-26.5-0.7c-4.7-1.2-7.9-8.4-11.8-12.9
		C586.7,172.1,590.6,166.3,595,166z M653.1,278.7c-8.7,1.3-17.6,0.4-26.5,0.4v-0.2c-10.6,0-21.2,0.6-31.8-0.3
		c-3.9-0.3-7.5-4-11.3-6.2c2.4-3.8,4.6-7.7,7.4-11.1c1.6-1.8,3.8-2.8,6.2-3c19.4,0.2,38.8-0.1,58.1,1.5c4.6,0.4,8.6,7.3,12.9,11.3
		C663.1,273.8,658.4,278,653.1,278.7z M708.6,235.6c-39.6,0.1-79.2,0.2-118.8,0.3c13.8,1.2,27.7,2.9,41.6,3.4
		c15.7,0.6,31.5,0.1,48.1,3.9c0,0,0,0,0,0c-16.6-3.7-32.4-3.3-48.1-3.9c-13.9-0.5-27.7-2.2-41.6-3.4l-1.6-0.3l-1.6,0.1
		c-0.1-0.2-0.1-0.4-0.2-0.6c0.1,0.2,0.2,0.4,0.2,0.6c-0.7-2.1-1.6-4.2-2.4-6.3c0.1,0.2,0.2,0.5,0.3,0.7c-2-4.9-4-9.8-4-14.7
		c0-1.3,2.1-3.2,4.9-4.7c-2.7,1.5-4.8,3.4-4.8,4.7c0,4.7,1.8,9.3,3.7,14c-4.5-13.5,0-18.2,16.3-18.3c36-0.3,72.1-0.1,108.1-0.1
		c8.9,0,17,0.6,17.1,12.5C725.8,235.6,717.3,235.6,708.6,235.6z"/>
</g>
<path class="st2" d="M316.1,125.8c33.5-25.3,72.6-24.2,107.5-11.3c40.7,15,66.6,48.4,73.8,93.3c13.2,82.9-62.9,156.8-149,134.3
	c-29.1-7.6-54.5-23.9-68.4-53c7.4,6.7,14.2,14.3,22.3,19.9c11,7.6,22.3,16.6,34.7,19.6c6.5,1.6,15.8-8.4,23.8-13.2
	c-1.8-3-3-7.7-5.5-8.6c-25.2-8.5-39.9-26.5-50.9-50c-13.7-29.1-6.8-65.6,18.7-84.8c-2,3.5-3.6,7.2-6,10.4
	c-19,26.1-19.7,61.1-1.6,86.1c31.4,43.2,94.7,44.2,125.3,1.7c31.9-44.4,9.2-105.1-44.4-117c-26.7-6-48.3,2.8-70,15.2
	c4.5-4.5,8.1-11.1,13.5-13.2c22-8.8,43.8-19.8,68.7-6.1c3.8,2.1,14.1-6,20.2-10.8c2.1-1.6,2-10.6,0.7-11.2
	c-10.3-4.7-21-10.9-31.8-11.4C370.2,114.4,342,111.8,316.1,125.8z"/>
<path class="st3" d="M146.8,345.7c-63.6,2.4-127.7-58.3-117.2-134.2c6.7-48.6,34-77.7,73.9-98c33.4-17,97.5-4,124.5,23
	c9.9,9.9,11.1,22.3,2.2,33.6c-9.4,11.9-19.9,9.9-30.7,0.9C163.3,140.5,108.8,144.6,81,191c-16.3,27.1-3.2,81.8,24.8,97.9
	c31.4,18.1,61.2,16.9,90.1-5.6c11.1-8.6,23.7-12.3,35.3-1.4c7.9,7.4,4.1,27.1-6.8,36.2C202.4,336.6,177.1,346.8,146.8,345.7z
	 M138.3,308.5c-33-2.4-44.7-15.6-60.8-40.7C68.7,254,62.8,234.3,65,218.6c2.5-17.4,13.6-34.9,24.8-49.4c21.5-27.7,55-34.1,87.8-20.4
	c5.8,2.4,29.8-9.5,29.9-15.2c-0.1-2.3-1.2-4.4-3.1-5.8c-29-17.7-63-19.3-91.9-10.1C71.2,131,43,160.9,37.1,209.2
	c-5.9,48.6,10.1,84.4,49.7,111.1C107.4,334.2,123.5,330.3,138.3,308.5z"/>
<path class="st4" d="M316.1,125.8c25.9-14,54.1-11.4,81.7-10.2c10.8,0.5,21.5,6.7,31.8,11.4c1.4,0.6,1.4,9.6-0.7,11.2
	c-6.2,4.8-16.5,12.9-20.2,10.8c-24.9-13.7-46.7-2.7-68.7,6.1c-5.4,2.2-9,8.7-13.5,13.2l-3.3,3.6c-25.5,19.2-32.4,55.7-18.7,84.8
	c11,23.5,25.7,41.5,50.9,50c2.5,0.9,3.7,5.6,5.5,8.6c-8,4.8-17.3,14.7-23.8,13.2c-12.5-3-23.8-11.9-34.7-19.6
	c-8.1-5.7-14.9-13.2-22.3-19.9C240.5,241.4,259.7,155.5,316.1,125.8z"/>
<path class="st5" d="M138.3,308.5c-14.9,21.8-30.9,25.8-51.5,11.9c-39.6-26.7-55.5-62.5-49.7-111.1c5.9-48.3,34.1-78.2,75.5-91.5
	c28.9-9.2,62.9-7.6,91.9,10.1c1.8,1.4,3,3.5,3.1,5.8c-0.1,5.7-24.1,17.7-29.9,15.2c-32.8-13.7-66.3-7.2-87.8,20.4
	c-11.2,14.4-22.4,32-24.8,49.4c-2.2,15.7,3.7,35.4,12.6,49.2C93.7,292.9,105.3,306.1,138.3,308.5z"/>
<path class="st6" d="M960.7,301.6c-24.3-22.6-48.1-45.6-72.4-68.1c-10.2-9.4-11.6-17.2-0.1-27.4c22.2-19.6,43.2-40.3,64.7-60.7
	c8.7-8.2,9.7-17.1,1.6-26.4c-9.6-11-23.9-11.2-35.8-0.2c-21.7,20.1-43,40.6-64.7,60.7c-3.6,3.4-8.3,5.7-12.4,8.4
	c-1.1-4.9-3.2-9.8-3.2-14.6c-0.2-40.2,0-80.4-0.2-120.6c0-5.8,0.8-14.1-2.5-16.9c-6.9-5.9-18.5-14.2-23.9-11.8
	c-8.2,3.6-17.6,15.2-17.9,23.8c-1.8,44.9-0.8,89.9-0.8,134.8c0,43.8-0.1,87.6,0,131.2c0,16.1,10,28.7,22.3,29
	c12.8,0.3,22.7-11.6,22.8-28.1s-0.2-33.1,0.2-49.7c0.1-4.4,2-8.7,3.1-13.1c3.8,2.2,8.2,3.8,11.3,6.8c26.8,25,53.2,50.6,80.2,75.4
	c10.6,9.7,22.8,14,33.6,0C976,321.5,970.9,311.1,960.7,301.6z"/>
</svg>
